<svg id="Layer_1" data-name="Layer 1" xmlns="http://www.w3.org/2000/svg" viewBox="0 0 97.08 19.82"><defs><style>.cls-1{fill:#fff;}</style></defs><path class="cls-1" d="M153.39,151.61h-7.24v-1.83h9.91v13.27h-2.67Zm-1.07-6.36c0-1,.9-1.75,2.13-1.75a1.89,1.89,0,0,1,2.12,1.75c0,1.06-.9,1.75-2.12,1.75S152.32,146.31,152.32,145.25Z" transform="translate(-146.15 -143.5)"/><path class="cls-1" d="M165.61,162.06a4.09,4.09,0,0,1-1.48-3.27v-10.6a4.11,4.11,0,0,1,1.48-3.27,6.56,6.56,0,0,1,7.73,0,4.11,4.11,0,0,1,1.48,3.27v2.24h-3.35v-2.24a1.67,1.67,0,0,0-.55-1.31,2,2,0,0,0-1.41-.49,2.09,2.09,0,0,0-1.42.49,1.7,1.7,0,0,0-.55,1.31v10.6a1.7,1.7,0,0,0,.55,1.31,2,2,0,0,0,1.42.49,2,2,0,0,0,1.41-.49,1.67,1.67,0,0,0,.55-1.31v-2.73h3.35v2.73a4.09,4.09,0,0,1-1.48,3.27,6.56,6.56,0,0,1-7.73,0Z" transform="translate(-146.15 -143.5)"/><path class="cls-1" d="M177.94,163.05V143.94h3.41V152h4.05v-8.05h3.41v19.11H185.4v-8.33h-4.05v8.33Z" transform="translate(-146.15 -143.5)"/><path class="cls-1" d="M199.27,158.82H195.6l-.74,4.23h-3.41l3.73-19.11h4.57l3.74,19.11H200Zm-.45-2.79-1.38-8-1.39,8Z" transform="translate(-146.15 -143.5)"/><path class="cls-1" d="M213.78,163.05l-2.47-7.89h-1.77v7.89h-3.41V143.94h5.34a5.77,5.77,0,0,1,3.89,1.24,4.14,4.14,0,0,1,1.45,3.32v2.1a4.49,4.49,0,0,1-.61,2.32,4.24,4.24,0,0,1-1.74,1.58l2.86,8.55Zm-4.24-10.62h1.77a2.3,2.3,0,0,0,1.54-.47,1.63,1.63,0,0,0,.55-1.31v-2.21a1.65,1.65,0,0,0-.55-1.31,2.3,2.3,0,0,0-1.54-.46h-1.77Z" transform="translate(-146.15 -143.5)"/><path class="cls-1" d="M226.85,158.82h-3.67l-.74,4.23H219l3.73-19.11h4.57l3.73,19.11h-3.47ZM226.4,156,225,148l-1.38,8Z" transform="translate(-146.15 -143.5)"/><path class="cls-1" d="M233.7,143.94h9.53v2.73h-6.12v5.59h4.83V155h-4.83v8.06H233.7Z" transform="translate(-146.15 -143.5)"/></svg>